<?xml version="1.0" encoding="UTF-8" standalone="no"?>
<!-- Created with Inkscape (http://www.inkscape.org/) -->

<svg
   xmlns:dc="http://purl.org/dc/elements/1.1/"
   xmlns:cc="http://creativecommons.org/ns#"
   xmlns:rdf="http://www.w3.org/1999/02/22-rdf-syntax-ns#"
   xmlns:svg="http://www.w3.org/2000/svg"
   xmlns="http://www.w3.org/2000/svg"
   xmlns:xlink="http://www.w3.org/1999/xlink"
   xmlns:sodipodi="http://sodipodi.sourceforge.net/DTD/sodipodi-0.dtd"
   xmlns:inkscape="http://www.inkscape.org/namespaces/inkscape"
   width="744.09448819"
   height="1052.3622047"
   id="svg2"
   version="1.1"
   inkscape:version="0.47 r22583"
   sodipodi:docname="New document 1">
  <defs
     id="defs4">
    <linearGradient
       inkscape:collect="always"
       id="linearGradient4207">
      <stop
         style="stop-color:#525252;stop-opacity:1;"
         offset="0"
         id="stop4209" />
      <stop
         style="stop-color:#525252;stop-opacity:0;"
         offset="1"
         id="stop4211" />
    </linearGradient>
    <linearGradient
       id="linearGradient4199">
      <stop
         style="stop-color:#404040;stop-opacity:1;"
         offset="0"
         id="stop4201" />
      <stop
         style="stop-color:#404040;stop-opacity:0;"
         offset="1"
         id="stop4203" />
    </linearGradient>
    <linearGradient
       id="linearGradient4119">
      <stop
         style="stop-color:#595959;stop-opacity:1;"
         offset="0"
         id="stop4121" />
      <stop
         style="stop-color:#000000;stop-opacity:1;"
         offset="1"
         id="stop4123" />
    </linearGradient>
    <linearGradient
       id="linearGradient4105">
      <stop
         style="stop-color:#404040;stop-opacity:1;"
         offset="0"
         id="stop4107" />
      <stop
         style="stop-color:#000000;stop-opacity:1"
         offset="1"
         id="stop4109" />
    </linearGradient>
    <inkscape:perspective
       sodipodi:type="inkscape:persp3d"
       inkscape:vp_x="0 : 526.18109 : 1"
       inkscape:vp_y="0 : 1000 : 0"
       inkscape:vp_z="744.09448 : 526.18109 : 1"
       inkscape:persp3d-origin="372.04724 : 350.78739 : 1"
       id="perspective10" />
    <filter
       inkscape:collect="always"
       id="filter4165">
      <feGaussianBlur
         inkscape:collect="always"
         stdDeviation="15.601433"
         id="feGaussianBlur4167" />
    </filter>
    <filter
       inkscape:collect="always"
       id="filter4183"
       x="-0.33923078"
       width="1.6784616"
       y="-0.072892561"
       height="1.1457851">
      <feGaussianBlur
         inkscape:collect="always"
         stdDeviation="10.5"
         id="feGaussianBlur4185" />
    </filter>
    <filter
       inkscape:collect="always"
       id="filter4191"
       x="-0.1834399"
       width="1.3668798"
       y="-0.089163991"
       height="1.178328">
      <feGaussianBlur
         inkscape:collect="always"
         stdDeviation="14.215142"
         id="feGaussianBlur4193" />
    </filter>
    <filter
       inkscape:collect="always"
       id="filter4195"
       x="-0.21841179"
       width="1.4368236"
       y="-0.082725582"
       height="1.1654512">
      <feGaussianBlur
         inkscape:collect="always"
         stdDeviation="11.81794"
         id="feGaussianBlur4197" />
    </filter>
    <linearGradient
       inkscape:collect="always"
       xlink:href="#linearGradient4199"
       id="linearGradient4205"
       x1="428.13095"
       y1="293.97397"
       x2="403.66519"
       y2="362.4212"
       gradientUnits="userSpaceOnUse" />
    <linearGradient
       inkscape:collect="always"
       xlink:href="#linearGradient4207"
       id="linearGradient4213"
       x1="422.53806"
       y1="290.19586"
       x2="414.18607"
       y2="365.76913"
       gradientUnits="userSpaceOnUse" />
  </defs>
  <sodipodi:namedview
     id="base"
     pagecolor="#ffffff"
     bordercolor="#666666"
     borderopacity="1.0"
     inkscape:pageopacity="0.0"
     inkscape:pageshadow="2"
     inkscape:zoom="0.36968681"
     inkscape:cx="455.79688"
     inkscape:cy="643.89505"
     inkscape:document-units="px"
     inkscape:current-layer="layer1"
     showgrid="false"
     inkscape:snap-global="false"
     inkscape:window-width="1360"
     inkscape:window-height="712"
     inkscape:window-x="-4"
     inkscape:window-y="-4"
     inkscape:window-maximized="1" />
  <metadata
     id="metadata7">
    <rdf:RDF>
      <cc:Work
         rdf:about="">
        <dc:format>image/svg+xml</dc:format>
        <dc:type
           rdf:resource="http://purl.org/dc/dcmitype/StillImage" />
        <dc:title></dc:title>
      </cc:Work>
    </rdf:RDF>
  </metadata>
  <g
     inkscape:label="Layer 1"
     inkscape:groupmode="layer"
     id="layer1">
    <path
       sodipodi:nodetypes="czzssssssszzz"
       id="path4159"
       d="m 514.29147,165.25275 c 159.14639,25.50104 110.07313,200.32496 86.09178,264.14788 -25.2824,67.28548 -47.89856,196.22518 -23.13968,251.93267 24.75887,55.70748 49.78053,165.76575 24.58408,176.4851 -44.068,18.74789 -54.06647,-38.6189 -95.25996,-48.91727 -41.1935,-10.29839 -12.87297,69.51402 -64.36484,72.08861 -51.49186,2.57459 -38.6189,-77.2378 -82.38698,-97.83456 -43.76809,-20.59674 -92.68538,77.23781 -139.02805,54.06647 -46.34269,-23.17134 -12.87297,-90.11077 -25.74594,-115.8567 -12.87297,-25.74594 -56.64106,38.61889 -92.68537,-12.87297 -25.055888,-35.79413 69.10566,-101.20234 97.83455,-144.17725 28.72889,-42.9749 80.78996,-136.71022 99.8124,-226.78346 18.32848,-86.78728 54.71966,-197.84717 214.28801,-172.27852 z"
       style="fill:#000000;stroke:#000000;stroke-width:0.90110773000000000px;stroke-linecap:butt;stroke-linejoin:miter;stroke-opacity:1;fill-opacity:1;filter:url(#filter4165);opacity:0.75" />
    <path
       style="fill:#ffffff;fill-opacity:1;stroke:#bfbfbf;stroke-width:2;stroke-linecap:butt;stroke-linejoin:miter;stroke-opacity:1;stroke-miterlimit:4;stroke-dasharray:none"
       d="m 506.29147,151.25275 c 153.4321,36.92961 110.07313,200.32496 86.09178,264.14788 -25.2824,67.28548 -47.89856,196.22518 -23.13968,251.93267 24.75887,55.70748 49.78053,165.76575 24.58408,176.4851 -44.068,18.74789 -54.06647,-38.6189 -95.25996,-48.91727 -41.1935,-10.29839 -12.87297,69.51402 -64.36484,72.08861 -51.49186,2.57459 -38.6189,-77.2378 -82.38698,-97.83456 -43.76809,-20.59674 -92.68538,77.23781 -139.02805,54.06647 -46.34269,-23.17134 -12.87297,-90.11077 -25.74594,-115.8567 -12.87297,-25.74594 -56.64106,38.61889 -92.68537,-12.87297 -25.055888,-35.79413 69.10566,-101.20234 97.83455,-144.17725 28.72889,-42.9749 80.78996,-136.71022 99.8124,-226.78346 18.32848,-86.78728 57.58657,-209.99503 214.28801,-172.27852 z"
       id="path4153"
       sodipodi:nodetypes="czzssssssszzz" />
    <path
       sodipodi:type="arc"
       style="fill:#000000;fill-opacity:1;fill-rule:nonzero;stroke:url(#linearGradient4213);stroke-width:4.78087234;stroke-linecap:round;stroke-linejoin:round;stroke-miterlimit:4;stroke-opacity:1;stroke-dasharray:none;stroke-dashoffset:0"
       id="path4155"
       sodipodi:cx="417.14285"
       sodipodi:cy="328.07648"
       sodipodi:rx="14.285714"
       sodipodi:ry="32.857143"
       d="m 431.42857,328.07648 a 14.285714,32.857143 0 1 1 -28.57143,0 14.285714,32.857143 0 1 1 28.57143,0 z"
       transform="matrix(1.3086329,0.64263829,-0.65481165,1.2843046,108.51278,-353.14318)" />
    <path
       transform="matrix(1.0549575,0.13774974,-0.10264921,1.4156964,135.15819,-157.58013)"
       d="m 431.42857,328.07648 a 14.285714,32.857143 0 1 1 -28.57143,0 14.285714,32.857143 0 1 1 28.57143,0 z"
       sodipodi:ry="32.857143"
       sodipodi:rx="14.285714"
       sodipodi:cy="328.07648"
       sodipodi:cx="417.14285"
       id="path4157"
       style="fill:#000000;fill-opacity:1;fill-rule:nonzero;stroke:url(#linearGradient4205);stroke-width:5.64445639;stroke-linecap:round;stroke-linejoin:round;stroke-miterlimit:4;stroke-opacity:1;stroke-dasharray:none;stroke-dashoffset:0"
       sodipodi:type="arc" />
    <path
       style="fill:#bfbfbf;fill-opacity:1;stroke:none;filter:url(#filter4183);opacity:0.25"
       d="m 483.14286,684.93361 c 0,-45.71428 48.57143,-194.28571 48.57143,-194.28571 0,0 -5.71429,97.14285 -5.71429,140 0,42.85714 31.42857,205.71428 31.42857,205.71428 0,0 -34.28571,-25.71428 -40,-40 -27.38626,-7.28527 -35.94779,-24.10543 -34.28571,-111.42857 z"
       id="path4169"
       sodipodi:nodetypes="ccsccc" />
    <path
       sodipodi:nodetypes="ccsccc"
       id="path4187"
       d="M 308.85715,679.21933 C 354.57144,553.50505 366,464.93362 366,464.93362 c 0,0 26.07471,85.43741 11.42857,125.71428 -22.85714,62.85714 -17.14286,165.71428 -17.14286,165.71428 0,0 -39.99999,8.57143 -97.14285,51.42857 -26.02805,-4.45872 -4.51922,-44.10543 45.71429,-128.57142 z"
       style="fill:#bfbfbf;fill-opacity:1;stroke:none;filter:url(#filter4195);opacity:0.25" />
    <path
       style="fill:#bfbfbf;fill-opacity:1;stroke:none;filter:url(#filter4191);opacity:0.25"
       d="m 189.46284,620.63261 c 85.4818,-99.71245 116.79412,-286.17314 116.79412,-286.17314 0,0 -7.16327,100.3273 -14.57327,142.539 -14.94005,85.10728 -48.94186,171.58313 -59.96941,174.89139 0,0 -44.58855,46.80943 -97.14285,65.19425 -26.02805,-4.45872 -21.34394,-45.63495 54.89141,-96.4515 z"
       id="path4189"
       sodipodi:nodetypes="ccsccc" />
  </g>
</svg>
